<?xml version="1.0" encoding="utf-8"?>
<!-- Generator: Adobe Illustrator 21.0.0, SVG Export Plug-In . SVG Version: 6.00 Build 0)  -->
<svg version="1.1" id="Layer_1" xmlns="http://www.w3.org/2000/svg" xmlns:xlink="http://www.w3.org/1999/xlink" x="0px" y="0px"
	 viewBox="0 0 512 512" style="enable-background:new 0 0 512 512;" xml:space="preserve" width="150px" height="150px">
<style type="text/css">
	.st0{fill:#B2B3B4;}
	.st1{fill:#18171D;}
	.st2{fill:#B2B3B4;}
</style>
<g id="Inspiration_Ideas">
	<g>
		<g>
			<path class="st0" fill="#B2B3B4" d="M324.6,136.6c0-12.5-4.8-24.2-13.7-33.1c-8.8-8.8-20.6-13.7-33-13.7c0,0,0,0,0,0c-12.5,0-24.2,4.9-33,13.7
				c-8.8,8.8-13.7,20.6-13.7,33.1c0,19.8,12.5,37.5,31.1,44.1l3.8,1.3l0,18.8l6.2,0v-32.4h-11.8c-7.9,0-14.4-6.4-14.4-14.4
				s6.4-14.4,14.4-14.4c7.9,0,14.4,6.4,14.4,14.4c0,1.1-0.1,2.1-0.3,3.1h6.9c-0.2-1-0.3-2-0.3-3.1c0-7.9,6.4-14.4,14.4-14.4
				c7.9,0,14.4,6.4,14.4,14.4s-6.4,14.4-14.4,14.4h-11.8v32.4h6.2l0-18.8l3.8-1.3C312,174.1,324.6,156.4,324.6,136.6z"/>
			<circle class="st0" cx="260.4" cy="154" r="3.1"/>
			<circle class="st0" cx="295.3" cy="154" r="3.1"/>
			<path class="st1" d="M300.9,189.8c21.1-9.1,35-30,35-53.2c0-15.5-6-30.1-17-41c-10.9-11-25.5-17-41-17c0,0,0,0-0.1,0
				c-15.5,0-30,6-41,17c-11,10.9-17,25.5-17,41c0,23.2,13.8,44.1,34.9,53.3l0,11h-87.3v21.8l-43.7,87.3v24.4H150v69.8h52.4v29.3
				h11.3v-29.3h29.3v-11.3h-81.7v-58.6h11.8V323h-38v-10.5l43.7-87.3v-13.2h100.1l22.1,0v0H377v46.8c0,54.9-32.9,103.7-83.8,124.3
				l4.2,10.4c9.7-3.9,18.8-8.8,27.2-14.5v54.4h11.3v-62.8c32.7-27.1,52.4-67.6,52.4-111.8v-58h-87.3L300.9,189.8z M293.4,180.7
				l-3.8,1.3l0,18.8h-6.2v-32.4h11.8c7.9,0,14.4-6.4,14.4-14.4s-6.4-14.4-14.4-14.4c-7.9,0-14.4,6.4-14.4,14.4
				c0,1.1,0.1,2.1,0.3,3.1h-6.9c0.2-1,0.3-2,0.3-3.1c0-7.9-6.4-14.4-14.4-14.4c-7.9,0-14.4,6.4-14.4,14.4s6.4,14.4,14.4,14.4h11.8
				v32.4l-6.2,0l0-18.8l-3.8-1.3c-18.6-6.6-31.1-24.3-31.1-44.1c0-12.5,4.9-24.2,13.7-33.1c8.8-8.8,20.6-13.7,33-13.7c0,0,0,0,0,0
				c12.5,0,24.2,4.9,33,13.7c8.8,8.8,13.7,20.6,13.7,33.1C324.6,156.4,312,174.1,293.4,180.7z M292.2,154c0-1.7,1.4-3.1,3.1-3.1
				c1.7,0,3.1,1.4,3.1,3.1c0,1.7-1.4,3.1-3.1,3.1C293.6,157.1,292.2,155.8,292.2,154z M263.5,154c0,1.7-1.4,3.1-3.1,3.1
				c-1.7,0-3.1-1.4-3.1-3.1c0-1.7,1.4-3.1,3.1-3.1C262.1,150.9,263.5,152.3,263.5,154z"/>
			<rect x="205.7" y="88.6" transform="matrix(0.5 -0.866 0.866 0.5 21.4179 231.6652)" class="st1" width="11.3" height="17.5"/>
			<rect x="192.6" y="130.4" class="st1" width="17.5" height="11.3"/>
			<rect x="203.4" y="168.9" transform="matrix(0.866 -0.5 0.5 0.866 -58.8342 129.4321)" class="st1" width="17.5" height="11.3"/>
			<rect x="340.2" y="164.4" transform="matrix(0.5 -0.866 0.866 0.5 22.9503 386.1036)" class="st1" width="11.3" height="17.5"/>
			<rect x="347.1" y="128.8" class="st1" width="17.5" height="11.3"/>
			
				<rect x="336.4" y="90.3" transform="matrix(0.866 -0.5001 0.5001 0.866 -1.7399 185.4207)" class="st1" width="17.5" height="11.3"/>
			<path class="st1" fill="#18171D" d="M309.7,293.7v-34.9c0-12.7-10.4-23.1-23.1-23.1h-26.2V247h26.2c6.5,0,11.8,5.3,11.8,11.8v34.9
				c0,16.2-13.1,29.3-29.3,29.3h-8.7v11.3h8.7C291.5,334.3,309.7,316.1,309.7,293.7z"/>
			<path class="st1" d="M269.1,288.1h-8.7v11.3h8.7c7.9,0,14.4-6.4,14.4-14.4c0-7.9-6.4-14.4-14.4-14.4h-8.7v11.3h8.7
				c1.7,0,3.1,1.4,3.1,3.1C272.2,286.7,270.8,288.1,269.1,288.1z"/>
		</g>
		<g>
			<path class="st2" fill="#B2B3B4" d="M213.6,404.1v29.3h111v-54.4c-8.4,5.7-17.5,10.6-27.2,14.5l-4.2-10.4c50.9-20.6,83.8-69.4,83.8-124.3v-46.8
				h-76.1v0l-22.1,0H178.7v13.2L135,312.5V323h38v11.3h-11.8v58.6h81.7v11.3H213.6z M260.4,288.1h8.7c1.7,0,3.1-1.4,3.1-3.1
				c0-1.7-1.4-3.1-3.1-3.1h-8.7v-11.3h8.7c7.9,0,14.4,6.4,14.4,14.4c0,7.9-6.4,14.4-14.4,14.4h-8.7V288.1z M260.4,323h8.7
				c16.2,0,29.3-13.1,29.3-29.3v-34.9c0-6.5-5.3-11.8-11.8-11.8h-26.2v-11.3h26.2c12.7,0,23.1,10.4,23.1,23.1v34.9
				c0,22.4-18.2,40.6-40.6,40.6h-8.7V323z"/>
		</g>
	</g>
</g>
</svg>
